<?xml version="1.0" encoding="iso-8859-1"?>
<!-- Generator: Adobe Illustrator 16.0.0, SVG Export Plug-In . SVG Version: 6.00 Build 0)  -->
<!DOCTYPE svg PUBLIC "-//W3C//DTD SVG 1.1//EN" "http://www.w3.org/Graphics/SVG/1.1/DTD/svg11.dtd">
<svg version="1.1" id="Capa_1" xmlns="http://www.w3.org/2000/svg" xmlns:xlink="http://www.w3.org/1999/xlink" x="0px" y="0px"
	 width="16px" height="16px" viewBox="0 0 16 16" style="enable-background:new 0 0 16 16;"
	 xml:space="preserve">
<g>
	<g>
		<path d="M310.321,114.667h-40.78c-12.959-11.57-37.375-18.687-64.541-18.687s-51.582,7.116-64.541,18.687h-40.78
			C44.716,114.667,0,159.382,0,214.345c0,54.962,44.716,99.679,99.679,99.679c54.962,0,99.678-44.717,99.678-99.679
			c0-0.728-0.008-1.455-0.024-2.185h11.336c-0.017,0.729-0.024,1.457-0.024,2.185c0,54.962,44.718,99.679,99.68,99.679
			c54.963,0,99.679-44.717,99.679-99.679C410.002,159.382,365.284,114.667,310.321,114.667z M99.679,273.491
			c-32.612,0-59.145-26.533-59.145-59.146c0-32.613,26.532-59.147,59.145-59.147c32.613,0,59.146,26.534,59.146,59.147
			C158.825,246.958,132.292,273.491,99.679,273.491z M231.786,153.266h-53.585c-6.36,0-11.529-5.182-11.529-11.542
			c0-6.359,5.169-11.542,11.529-11.542h53.585c6.371,0,11.542,5.183,11.542,11.542C243.328,148.083,238.157,153.266,231.786,153.266
			z M310.321,273.491c-32.613,0-59.146-26.533-59.146-59.146c0-32.613,26.533-59.147,59.146-59.147
			c32.61,0,59.145,26.534,59.145,59.147C369.466,246.958,342.934,273.491,310.321,273.491z"/>
	</g>
</g>
<g>
</g>
<g>
</g>
<g>
</g>
<g>
</g>
<g>
</g>
<g>
</g>
<g>
</g>
<g>
</g>
<g>
</g>
<g>
</g>
<g>
</g>
<g>
</g>
<g>
</g>
<g>
</g>
<g>
</g>
</svg>
